<svg width="125" height="23" viewBox="0 0 125 23" fill="none" xmlns="http://www.w3.org/2000/svg">
<path d="M12.328 9.264C13.288 9.568 14.04 10.08 14.584 10.8C15.128 11.504 15.4 12.376 15.4 13.416C15.4 14.888 14.824 16.024 13.672 16.824C12.536 17.608 10.872 18 8.68 18H-0.0079999V1.2H8.2C10.248 1.2 11.816 1.592 12.904 2.376C14.008 3.16 14.56 4.224 14.56 5.568C14.56 6.384 14.36 7.112 13.96 7.752C13.576 8.392 13.032 8.896 12.328 9.264ZM3.856 4.128V8.088H7.72C8.68 8.088 9.408 7.92 9.904 7.584C10.4 7.248 10.648 6.752 10.648 6.096C10.648 5.44 10.4 4.952 9.904 4.632C9.408 4.296 8.68 4.128 7.72 4.128H3.856ZM8.392 15.072C9.416 15.072 10.184 14.904 10.696 14.568C11.224 14.232 11.488 13.712 11.488 13.008C11.488 11.616 10.456 10.92 8.392 10.92H3.856V15.072H8.392ZM24.2236 18.192C22.8636 18.192 21.6396 17.912 20.5516 17.352C19.4796 16.776 18.6396 15.984 18.0316 14.976C17.4236 13.968 17.1196 12.824 17.1196 11.544C17.1196 10.264 17.4236 9.12 18.0316 8.112C18.6396 7.104 19.4796 6.32 20.5516 5.76C21.6396 5.184 22.8636 4.896 24.2236 4.896C25.5836 4.896 26.7996 5.184 27.8716 5.76C28.9436 6.32 29.7836 7.104 30.3916 8.112C30.9996 9.12 31.3036 10.264 31.3036 11.544C31.3036 12.824 30.9996 13.968 30.3916 14.976C29.7836 15.984 28.9436 16.776 27.8716 17.352C26.7996 17.912 25.5836 18.192 24.2236 18.192ZM24.2236 15.12C25.1836 15.12 25.9676 14.8 26.5756 14.16C27.1996 13.504 27.5116 12.632 27.5116 11.544C27.5116 10.456 27.1996 9.592 26.5756 8.952C25.9676 8.296 25.1836 7.968 24.2236 7.968C23.2636 7.968 22.4716 8.296 21.8476 8.952C21.2236 9.592 20.9116 10.456 20.9116 11.544C20.9116 12.632 21.2236 13.504 21.8476 14.16C22.4716 14.8 23.2636 15.12 24.2236 15.12ZM39.9501 18.192C38.5901 18.192 37.3661 17.912 36.2781 17.352C35.2061 16.776 34.3661 15.984 33.7581 14.976C33.1501 13.968 32.8461 12.824 32.8461 11.544C32.8461 10.264 33.1501 9.12 33.7581 8.112C34.3661 7.104 35.2061 6.32 36.2781 5.76C37.3661 5.184 38.5901 4.896 39.9501 4.896C41.3101 4.896 42.5261 5.184 43.5981 5.76C44.6701 6.32 45.5101 7.104 46.1181 8.112C46.7261 9.12 47.0301 10.264 47.0301 11.544C47.0301 12.824 46.7261 13.968 46.1181 14.976C45.5101 15.984 44.6701 16.776 43.5981 17.352C42.5261 17.912 41.3101 18.192 39.9501 18.192ZM39.9501 15.12C40.9101 15.12 41.6941 14.8 42.3021 14.16C42.9261 13.504 43.2381 12.632 43.2381 11.544C43.2381 10.456 42.9261 9.592 42.3021 8.952C41.6941 8.296 40.9101 7.968 39.9501 7.968C38.9901 7.968 38.1981 8.296 37.5741 8.952C36.9501 9.592 36.6381 10.456 36.6381 11.544C36.6381 12.632 36.9501 13.504 37.5741 14.16C38.1981 14.8 38.9901 15.12 39.9501 15.12ZM55.0767 12.936L53.2767 14.712V18H49.5327V0.191999H53.2767V10.272L58.7487 5.088H63.2127L57.8367 10.56L63.6927 18H59.1567L55.0767 12.936ZM69.2986 18.192C68.2266 18.192 67.1786 18.064 66.1546 17.808C65.1306 17.536 64.3146 17.2 63.7066 16.8L64.9546 14.112C65.5306 14.48 66.2266 14.784 67.0426 15.024C67.8586 15.248 68.6586 15.36 69.4426 15.36C71.0266 15.36 71.8186 14.968 71.8186 14.184C71.8186 13.816 71.6026 13.552 71.1706 13.392C70.7386 13.232 70.0746 13.096 69.1786 12.984C68.1226 12.824 67.2506 12.64 66.5626 12.432C65.8746 12.224 65.2746 11.856 64.7626 11.328C64.2666 10.8 64.0186 10.048 64.0186 9.072C64.0186 8.256 64.2506 7.536 64.7146 6.912C65.1946 6.272 65.8826 5.776 66.7786 5.424C67.6906 5.072 68.7626 4.896 69.9946 4.896C70.9066 4.896 71.8106 5 72.7066 5.208C73.6186 5.4 74.3706 5.672 74.9626 6.024L73.7146 8.688C72.5786 8.048 71.3386 7.728 69.9946 7.728C69.1946 7.728 68.5946 7.84 68.1946 8.064C67.7946 8.288 67.5946 8.576 67.5946 8.928C67.5946 9.328 67.8106 9.608 68.2426 9.768C68.6746 9.928 69.3626 10.08 70.3066 10.224C71.3626 10.4 72.2266 10.592 72.8986 10.8C73.5706 10.992 74.1546 11.352 74.6506 11.88C75.1466 12.408 75.3946 13.144 75.3946 14.088C75.3946 14.888 75.1546 15.6 74.6746 16.224C74.1946 16.848 73.4906 17.336 72.5626 17.688C71.6506 18.024 70.5626 18.192 69.2986 18.192ZM85.5526 4.896C87.1526 4.896 88.4406 5.376 89.4166 6.336C90.4086 7.296 90.9046 8.72 90.9046 10.608V18H87.1606V11.184C87.1606 10.16 86.9366 9.4 86.4886 8.904C86.0406 8.392 85.3926 8.136 84.5446 8.136C83.6006 8.136 82.8486 8.432 82.2886 9.024C81.7286 9.6 81.4486 10.464 81.4486 11.616V18H77.7046V0.191999H81.4486V6.432C81.9446 5.936 82.5446 5.56 83.2486 5.304C83.9526 5.032 84.7206 4.896 85.5526 4.896ZM100.583 18.192C99.2229 18.192 97.9989 17.912 96.9109 17.352C95.8389 16.776 94.9989 15.984 94.3909 14.976C93.7829 13.968 93.4789 12.824 93.4789 11.544C93.4789 10.264 93.7829 9.12 94.3909 8.112C94.9989 7.104 95.8389 6.32 96.9109 5.76C97.9989 5.184 99.2229 4.896 100.583 4.896C101.943 4.896 103.159 5.184 104.231 5.76C105.303 6.32 106.143 7.104 106.751 8.112C107.359 9.12 107.663 10.264 107.663 11.544C107.663 12.824 107.359 13.968 106.751 14.976C106.143 15.984 105.303 16.776 104.231 17.352C103.159 17.912 101.943 18.192 100.583 18.192ZM100.583 15.12C101.543 15.12 102.327 14.8 102.935 14.16C103.559 13.504 103.871 12.632 103.871 11.544C103.871 10.456 103.559 9.592 102.935 8.952C102.327 8.296 101.543 7.968 100.583 7.968C99.6229 7.968 98.8309 8.296 98.2069 8.952C97.5829 9.592 97.2709 10.456 97.2709 11.544C97.2709 12.632 97.5829 13.504 98.2069 14.16C98.8309 14.8 99.6229 15.12 100.583 15.12ZM117.798 4.896C118.998 4.896 120.086 5.176 121.062 5.736C122.054 6.28 122.83 7.056 123.39 8.064C123.95 9.056 124.23 10.216 124.23 11.544C124.23 12.872 123.95 14.04 123.39 15.048C122.83 16.04 122.054 16.816 121.062 17.376C120.086 17.92 118.998 18.192 117.798 18.192C116.15 18.192 114.854 17.672 113.91 16.632V22.656H110.166V5.088H113.742V6.576C114.67 5.456 116.022 4.896 117.798 4.896ZM117.15 15.12C118.11 15.12 118.894 14.8 119.502 14.16C120.126 13.504 120.438 12.632 120.438 11.544C120.438 10.456 120.126 9.592 119.502 8.952C118.894 8.296 118.11 7.968 117.15 7.968C116.19 7.968 115.398 8.296 114.773 8.952C114.166 9.592 113.862 10.456 113.862 11.544C113.862 12.632 114.166 13.504 114.773 14.16C115.398 14.8 116.19 15.12 117.15 15.12Z" fill="#1C2A39"/>
</svg>
